<svg width="153" height="34" viewBox="0 0 153 34" fill="none" xmlns="http://www.w3.org/2000/svg">
<g filter="url(#filter0_d_83_110)">
<path d="M7.39062 21.7969C7.47396 21.8385 7.66667 21.9271 7.96875 22.0625C8.27083 22.1875 8.68229 22.3073 9.20312 22.4219C9.72396 22.5365 10.2917 22.5938 10.9062 22.5938C12.1875 22.5938 13.3229 22.2917 14.3125 21.6875C15.3125 21.0833 15.8125 20.2448 15.8125 19.1719C15.8125 18.4844 15.599 17.9115 15.1719 17.4531C14.7448 16.9844 14.2135 16.6042 13.5781 16.3125C12.9531 16.0208 12.0885 15.6719 10.9844 15.2656C9.53646 14.7552 8.36458 14.276 7.46875 13.8281C6.58333 13.3802 5.82292 12.7344 5.1875 11.8906C4.5625 11.0469 4.25 9.96354 4.25 8.64062C4.25 6.52604 4.96875 4.9375 6.40625 3.875C7.85417 2.8125 9.66667 2.28125 11.8438 2.28125C12.7396 2.28125 13.6875 2.38021 14.6875 2.57812C15.6875 2.76562 16.5417 2.96354 17.25 3.17188C17.9583 3.36979 18.4062 3.5 18.5938 3.5625L18.4375 9H16.3594L15.2656 5.57812C15.1823 5.55729 14.9792 5.5 14.6562 5.40625C14.3333 5.30208 13.9167 5.20833 13.4062 5.125C12.8958 5.04167 12.3854 5 11.875 5C10.5104 5 9.45833 5.30729 8.71875 5.92188C7.97917 6.52604 7.60938 7.25521 7.60938 8.10938C7.60938 8.79688 7.82292 9.375 8.25 9.84375C8.67708 10.3021 9.20833 10.6823 9.84375 10.9844C10.4896 11.2865 11.3906 11.6406 12.5469 12.0469C13.9323 12.5365 15.0677 13 15.9531 13.4375C16.8385 13.875 17.5885 14.4948 18.2031 15.2969C18.8281 16.0885 19.1406 17.0938 19.1406 18.3125C19.1406 19.8438 18.7656 21.1406 18.0156 22.2031C17.2656 23.2552 16.2552 24.0365 14.9844 24.5469C13.724 25.0573 12.3229 25.3125 10.7812 25.3125C9.78125 25.3125 8.79688 25.2188 7.82812 25.0312C6.85938 24.8438 6.05208 24.651 5.40625 24.4531C4.77083 24.2448 4.36458 24.1094 4.1875 24.0469V18.4375H6.75L7.39062 21.7969ZM33.3594 10.5938C33.2135 10.5521 32.8646 10.4896 32.3125 10.4062C31.7604 10.3229 31.151 10.2812 30.4844 10.2812C28.9531 10.2812 27.7708 10.776 26.9375 11.7656C26.1042 12.7552 25.6875 14.2344 25.6875 16.2031C25.6875 18.3385 26.125 19.9688 27 21.0938C27.875 22.2083 29.0885 22.7656 30.6406 22.7656C31.5365 22.7656 32.3542 22.6198 33.0938 22.3281C33.8333 22.0365 34.4375 21.7292 34.9062 21.4062C35.375 21.0729 35.6094 20.8854 35.6094 20.8438L36.7344 22.7656C36.7344 22.8073 36.401 23.0521 35.7344 23.5C35.0781 23.9479 34.2708 24.3646 33.3125 24.75C32.3646 25.125 31.3698 25.3125 30.3281 25.3125C27.724 25.3125 25.7396 24.5417 24.375 23C23.0104 21.4583 22.3281 19.2969 22.3281 16.5156C22.3281 14.8073 22.6667 13.2865 23.3438 11.9531C24.0312 10.6198 25 9.58333 26.25 8.84375C27.5 8.09375 28.9635 7.71875 30.6406 7.71875C31.4948 7.71875 32.3281 7.81771 33.1406 8.01562C33.9531 8.20312 34.6146 8.40104 35.125 8.60938C35.6354 8.80729 35.9583 8.9375 36.0938 9L35.9219 13.3125H33.8438L33.3594 10.5938ZM46.7969 7.71875C49.1615 7.71875 51.0052 8.48438 52.3281 10.0156C53.651 11.5365 54.3125 13.599 54.3125 16.2031C54.3125 17.9948 53.9792 19.5833 53.3125 20.9688C52.6562 22.3542 51.7188 23.4271 50.5 24.1875C49.2917 24.9375 47.8958 25.3125 46.3125 25.3125C43.8854 25.3125 42 24.5833 40.6562 23.125C39.3125 21.6667 38.6406 19.5208 38.6406 16.6875C38.6406 14.8958 38.9844 13.3229 39.6719 11.9688C40.3698 10.6042 41.3333 9.55729 42.5625 8.82812C43.7917 8.08854 45.2031 7.71875 46.7969 7.71875ZM46.6406 10.2812C45.0573 10.2812 43.8854 10.8021 43.125 11.8438C42.375 12.875 42 14.4323 42 16.5156C42 20.6719 43.4948 22.7552 46.4844 22.7656C48.0469 22.7656 49.1823 22.2344 49.8906 21.1719C50.599 20.099 50.9531 18.4948 50.9531 16.3594C50.9531 12.3073 49.5156 10.2812 46.6406 10.2812ZM67.4531 10.4062L66.0156 9.95312V8.20312L73.0469 8.04688V9.95312L70.7812 10.3438H70.75L67.4531 15.2344L71.5781 22.4375H71.6094L74.0156 23.2344V25H69.6875L65.1094 16.8438H62.3281V22.4375L64.4062 23.2344V25H56.4062V23.2344L59.125 22.4375V2.92188L56.4062 2.28125V0.515625L62.3281 0.359375V14.4375H65.0469L67.4531 10.4062ZM86.4844 10.5938C86.3385 10.5521 85.9896 10.4896 85.4375 10.4062C84.8854 10.3229 84.276 10.2812 83.6094 10.2812C82.0781 10.2812 80.8958 10.776 80.0625 11.7656C79.2292 12.7552 78.8125 14.2344 78.8125 16.2031C78.8125 18.3385 79.25 19.9688 80.125 21.0938C81 22.2083 82.2135 22.7656 83.7656 22.7656C84.6615 22.7656 85.4792 22.6198 86.2188 22.3281C86.9583 22.0365 87.5625 21.7292 88.0312 21.4062C88.5 21.0729 88.7344 20.8854 88.7344 20.8438L89.8594 22.7656C89.8594 22.8073 89.526 23.0521 88.8594 23.5C88.2031 23.9479 87.3958 24.3646 86.4375 24.75C85.4896 25.125 84.4948 25.3125 83.4531 25.3125C80.849 25.3125 78.8646 24.5417 77.5 23C76.1354 21.4583 75.4531 19.2969 75.4531 16.5156C75.4531 14.8073 75.7917 13.2865 76.4688 11.9531C77.1562 10.6198 78.125 9.58333 79.375 8.84375C80.625 8.09375 82.0885 7.71875 83.7656 7.71875C84.6198 7.71875 85.4531 7.81771 86.2656 8.01562C87.0781 8.20312 87.7396 8.40104 88.25 8.60938C88.7604 8.80729 89.0833 8.9375 89.2188 9L89.0469 13.3125H86.9688L86.4844 10.5938ZM97.3281 10.375C97.9323 9.71875 98.6458 9.11458 99.4688 8.5625C100.302 8 101.203 7.71875 102.172 7.71875C102.641 7.71875 103.083 7.75521 103.5 7.82812C103.927 7.90104 104.276 7.97917 104.547 8.0625C104.818 8.13542 104.984 8.18229 105.047 8.20312L104.891 12.8438H102.797L102.328 10.4375C101.266 10.4375 100.349 10.6927 99.5781 11.2031C98.8073 11.7135 98.1771 12.2917 97.6875 12.9375V22.4375L100.891 23.2344V25H91.7656V23.2344L94.4844 22.4375V10.5938L91.7656 9.95312V8.20312L97.0469 8.04688L97.3281 10.375ZM107.453 9C107.62 8.9375 108.036 8.80729 108.703 8.60938C109.38 8.40104 110.177 8.20312 111.094 8.01562C112.01 7.81771 112.875 7.71875 113.688 7.71875C115.625 7.71875 117.094 8.10417 118.094 8.875C119.104 9.64583 119.609 10.9167 119.609 12.6875V22.4375L122.172 23.0781V24.8438L117.203 25L116.531 22.7656C115.844 23.4531 115.047 24.0521 114.141 24.5625C113.245 25.0625 112.292 25.3125 111.281 25.3125C109.771 25.3125 108.594 24.8958 107.75 24.0625C106.906 23.2188 106.484 22.0365 106.484 20.5156C106.484 18.7448 107.12 17.4792 108.391 16.7188C109.661 15.9479 111.479 15.5625 113.844 15.5625H116.406V13C116.406 12.0625 116.146 11.349 115.625 10.8594C115.104 10.3698 114.349 10.125 113.359 10.125C112.786 10.125 112.26 10.1615 111.781 10.2344C111.302 10.3073 110.922 10.3802 110.641 10.4531C110.37 10.526 110.203 10.5729 110.141 10.5938L109.688 13H107.609L107.453 9ZM114.172 17.6406C112.589 17.6406 111.453 17.8542 110.766 18.2812C110.089 18.7083 109.75 19.401 109.75 20.3594C109.75 21.0885 109.958 21.6719 110.375 22.1094C110.792 22.5469 111.365 22.7656 112.094 22.7656C112.802 22.7656 113.474 22.5729 114.109 22.1875C114.745 21.8021 115.286 21.3854 115.734 20.9375C116.182 20.4896 116.406 20.2448 116.406 20.2031V17.6406H114.172ZM127.453 6.28125C127.453 4.34375 127.964 2.82292 128.984 1.71875C130.016 0.604167 131.479 0.046875 133.375 0.046875C134.271 0.046875 135.078 0.130208 135.797 0.296875C136.516 0.463542 137.094 0.645833 137.531 0.84375C137.969 1.03125 138.188 1.13542 138.188 1.15625V5.15625H135.938L135.453 2.59375C135.37 2.57292 135.146 2.54167 134.781 2.5C134.427 2.45833 134.016 2.4375 133.547 2.4375C132.484 2.4375 131.734 2.71354 131.297 3.26562C130.87 3.80729 130.656 4.59896 130.656 5.64062V8.20312H134.891L134.781 10.5938H130.656V22.4375L133.859 23.2344V25H124.734V23.2344L127.453 22.4375V10.5938H124.578V8.51562L127.453 8.20312V6.28125ZM148.109 10.5938H143.469V20.875C143.469 22.1771 144 22.8281 145.062 22.8281C145.75 22.8281 146.583 22.5625 147.562 22.0312L148.422 23.7188C146.974 24.7812 145.479 25.3125 143.938 25.3125C142.854 25.3125 141.969 24.9583 141.281 24.25C140.604 23.5312 140.266 22.3438 140.266 20.6875V10.5938H137.062V8.51562L140.266 8.20312V4.17188L143.469 3.53125V8.20312H148.109V10.5938Z" fill="#FBB609"/>
</g>
<defs>
<filter id="filter0_d_83_110" x="0.1875" y="0.046875" width="152.234" height="33.2656" filterUnits="userSpaceOnUse" color-interpolation-filters="sRGB">
<feFlood flood-opacity="0" result="BackgroundImageFix"/>
<feColorMatrix in="SourceAlpha" type="matrix" values="0 0 0 0 0 0 0 0 0 0 0 0 0 0 0 0 0 0 127 0" result="hardAlpha"/>
<feOffset dy="4"/>
<feGaussianBlur stdDeviation="2"/>
<feComposite in2="hardAlpha" operator="out"/>
<feColorMatrix type="matrix" values="0 0 0 0 0 0 0 0 0 0 0 0 0 0 0 0 0 0 0.25 0"/>
<feBlend mode="normal" in2="BackgroundImageFix" result="effect1_dropShadow_83_110"/>
<feBlend mode="normal" in="SourceGraphic" in2="effect1_dropShadow_83_110" result="shape"/>
</filter>
</defs>
</svg>
